<svg width="99" height="99" viewBox="0 0 99 99" fill="none" xmlns="http://www.w3.org/2000/svg">
<circle cx="49.5" cy="49.5" r="49.5" fill="#FFDF00"/>
<path d="M41.042 81.42L40.58 76.128L43.814 75.96C46.054 75.82 47.174 74.644 47.174 72.432V51.39H53.684V72.348C53.684 77.892 50.744 80.86 44.864 81.252L41.042 81.42Z" fill="black"/>
<path d="M70.234 81.462C67.91 81.462 65.712 81.168 63.64 80.58C61.596 79.992 59.888 79.194 58.516 78.186L60.406 73.062C61.722 73.986 63.22 74.714 64.9 75.246C66.608 75.778 68.386 76.044 70.234 76.044C72.25 76.044 73.692 75.736 74.56 75.12C75.456 74.476 75.904 73.678 75.904 72.726C75.904 71.914 75.596 71.27 74.98 70.794C74.364 70.318 73.286 69.912 71.746 69.576L67 68.568C61.708 67.448 59.062 64.704 59.062 60.336C59.062 58.46 59.566 56.822 60.574 55.422C61.582 53.994 62.982 52.888 64.774 52.104C66.594 51.32 68.694 50.928 71.074 50.928C73.118 50.928 75.036 51.222 76.828 51.81C78.62 52.398 80.104 53.224 81.28 54.288L79.39 59.076C77.094 57.256 74.308 56.346 71.032 56.346C69.268 56.346 67.896 56.696 66.916 57.396C65.964 58.068 65.488 58.95 65.488 60.042C65.488 60.854 65.782 61.512 66.37 62.016C66.958 62.52 67.98 62.926 69.436 63.234L74.182 64.242C79.614 65.418 82.33 68.078 82.33 72.222C82.33 74.07 81.826 75.694 80.818 77.094C79.838 78.466 78.438 79.544 76.618 80.328C74.826 81.084 72.698 81.462 70.234 81.462Z" fill="black"/>
</svg>
