<svg width="99" height="99" viewBox="0 0 99 99" fill="none" xmlns="http://www.w3.org/2000/svg">
<circle cx="49.5" cy="49.5" r="49.5" fill="#607FB5"/>
<path d="M61.8565 41.0972L57.4595 64.0205H62.4428L63.674 57.337H71.3541C73.1129 57.2197 74.1878 56.3989 74.5786 56.1644C80.3006 51.8026 79.2688 46.2173 78.0376 43.97C76.8651 41.9063 73.8751 41.1949 72.5267 41.0972H61.8565Z" fill="white"/>
<path d="M39.5782 57.337L43.9166 35H48.8413L47.7273 41.0972H53.6487C58.761 41.3317 59.1792 44.7126 58.7493 46.3737L56.6387 57.337H51.5381L53.6487 47.1945C54.0708 45.1308 52.4175 44.5367 51.5381 44.4976H47.0238L44.4442 57.337H39.5782Z" fill="white"/>
<path d="M23.397 41.0972L19 64.0205H23.9833L25.2145 57.337H32.8947C34.6535 57.2197 35.7283 56.3989 36.1192 56.1644C41.8412 51.8026 40.8093 46.2173 39.5782 43.97C38.4056 41.9063 35.4156 41.1949 34.0672 41.0972H23.397Z" fill="white"/>
<path d="M25.918 53.8779L27.7355 44.439H32.4256C36.8344 44.8611 35.5524 49.5395 34.3603 51.826C33.4692 53.3738 31.3703 53.8389 30.4323 53.8779H25.918Z" fill="#607FB5"/>
<path d="M64.3775 53.8779L66.1949 44.439H70.8851C75.2939 44.8611 74.0119 49.5395 72.8198 51.826C71.9287 53.3738 69.8298 53.8389 68.8918 53.8779H64.3775Z" fill="#607FB5"/>
</svg>
