<svg width="107" height="107" viewBox="0 0 107 107" fill="none" xmlns="http://www.w3.org/2000/svg">
<g filter="url(#filter0_d_18_21)">
<circle cx="53.5" cy="49.5" r="49.5" fill="white"/>
</g>
<g clip-path="url(#clip0_18_21)">
<path d="M54 28C44.1369 28 37.9729 32.889 35.5069 42.6661C39.2059 37.7771 43.5209 35.9444 48.452 37.1662C51.2658 37.8633 53.2767 39.8877 55.5031 42.1276C59.129 45.7765 63.3257 49.9995 72.4931 49.9995C82.3553 49.9995 88.5203 45.1106 90.9854 35.3326C87.2873 40.2216 82.9723 42.0552 78.0403 40.8334C75.2274 40.1363 73.2165 38.1119 70.99 35.8719C67.3641 32.2231 63.1666 28 54 28ZM35.5069 49.9995C25.6447 49.9995 19.4797 54.8885 17.0146 64.6665C20.7127 59.7775 25.0278 57.9439 29.9598 59.1666C32.7726 59.8647 34.7835 61.8881 37.01 64.1272C40.6359 67.776 44.8334 72 54 72C63.8631 72 70.0271 67.111 72.4931 57.333C68.7941 62.222 64.4791 64.0556 59.548 62.8329C56.7342 62.1367 54.7233 60.1114 52.4969 57.8724C48.871 54.2235 44.6743 49.9995 35.5069 49.9995Z" fill="url(#paint0_linear_18_21)"/>
</g>
<defs>
<filter id="filter0_d_18_21" x="0" y="0" width="107" height="107" filterUnits="userSpaceOnUse" color-interpolation-filters="sRGB">
<feFlood flood-opacity="0" result="BackgroundImageFix"/>
<feColorMatrix in="SourceAlpha" type="matrix" values="0 0 0 0 0 0 0 0 0 0 0 0 0 0 0 0 0 0 127 0" result="hardAlpha"/>
<feOffset dy="4"/>
<feGaussianBlur stdDeviation="2"/>
<feComposite in2="hardAlpha" operator="out"/>
<feColorMatrix type="matrix" values="0 0 0 0 0 0 0 0 0 0 0 0 0 0 0 0 0 0 0.25 0"/>
<feBlend mode="normal" in2="BackgroundImageFix" result="effect1_dropShadow_18_21"/>
<feBlend mode="normal" in="SourceGraphic" in2="effect1_dropShadow_18_21" result="shape"/>
</filter>
<linearGradient id="paint0_linear_18_21" x1="35.3011" y1="28" x2="72.5427" y2="71.1439" gradientUnits="userSpaceOnUse">
<stop stop-color="#01A1B5"/>
<stop offset="1" stop-color="#1FC7B6"/>
</linearGradient>
<clipPath id="clip0_18_21">
<rect width="74" height="44" fill="white" transform="translate(17 28)"/>
</clipPath>
</defs>
</svg>
