<svg width="52" height="52" viewBox="0 0 52 52" fill="none" xmlns="http://www.w3.org/2000/svg">
<circle cx="26.0437" cy="25.9563" r="25.9563" fill="#4F95D0"/>
<path d="M21.9117 49.9197V46.801C17.716 48.1108 14.6318 45.7094 14.0839 44.0721C13.7708 42.388 12.5183 41.0314 11.7355 40.6415C11.1876 40.4076 10.9528 40.1737 11.031 39.8618C11.2659 39.472 11.579 39.498 11.7355 39.472C13.3011 39.394 14.8667 40.8234 15.4929 41.7331C17.309 44.3528 20.5288 44.0201 21.9117 43.5263C21.7865 42.2788 22.0683 41.0833 22.2248 40.6415C8.5731 37.2109 11.579 27.2571 14.7884 22.7089C13.5986 20.4635 14.4492 17.5631 15.0232 16.3936C18.0917 16.3936 20.581 18.2648 21.442 19.2004C25.7004 17.8282 30.3658 18.6286 32.1662 19.2004C33.9196 17.142 37.1238 16.4715 38.5067 16.3936C40.0096 18.639 39.446 21.5394 38.9764 22.7089C46.4911 34.1858 36.9933 39.446 31.3051 40.6415C31.5556 41.0158 31.7748 41.7331 31.7748 42.0449V49.9197C31.9313 51.0892 32.8707 51.3231 33.2621 51.479C25.7473 52.4926 18.8589 51.4011 20.1896 51.479C21.2542 51.5414 21.9117 50.4655 21.9117 49.9197Z" fill="white"/>
</svg>
