<svg width="35" height="35" viewBox="0 0 35 35" fill="none" xmlns="http://www.w3.org/2000/svg">
<circle cx="17.765" cy="17.235" r="17.235" fill="white"/>
<path d="M15.0214 33.1471V31.0763C12.2354 31.946 10.1875 30.3515 9.82371 29.2643C9.6158 28.1461 8.78417 27.2452 8.2644 26.9864C7.90056 26.8311 7.74463 26.6758 7.79661 26.4687C7.95254 26.2098 8.16045 26.2271 8.2644 26.2098C9.30394 26.1581 10.3435 27.1072 10.7593 27.7112C11.9651 29.4507 14.1031 29.2298 15.0214 28.9019C14.9382 28.0736 15.1253 27.2798 15.2293 26.9864C6.16454 24.7085 8.16045 18.0991 10.2915 15.0792C9.50145 13.5882 10.0663 11.6623 10.4474 10.8857C12.4849 10.8857 14.1378 12.1282 14.7095 12.7495C17.5371 11.8383 20.6349 12.3698 21.8303 12.7495C22.9946 11.3827 25.1222 10.9375 26.0405 10.8857C27.0384 12.3767 26.6642 14.3026 26.3523 15.0792C31.3421 22.6998 25.0356 26.1926 21.2586 26.9864C21.4249 27.2349 21.5705 27.7112 21.5705 27.9183V33.1471C21.6744 33.9237 22.2981 34.079 22.558 34.1825C17.5682 34.8555 12.9943 34.1307 13.8779 34.1825C14.5848 34.2239 15.0214 33.5095 15.0214 33.1471Z" fill="#4F95D0"/>
</svg>
