<svg width="52" height="52" viewBox="0 0 52 52" fill="none" xmlns="http://www.w3.org/2000/svg">
<circle cx="26.0437" cy="25.9563" r="25.9563" fill="#474A59"/>
<path d="M21.9117 49.9196V46.8008C17.716 48.1107 14.6318 45.7093 14.0839 44.072C13.7708 42.3879 12.5183 41.0312 11.7355 40.6414C11.1876 40.4075 10.9528 40.1736 11.031 39.8617C11.2659 39.4719 11.579 39.4979 11.7355 39.4719C13.3011 39.3939 14.8667 40.8233 15.4929 41.7329C17.309 44.3527 20.5288 44.02 21.9117 43.5262C21.7865 42.2787 22.0683 41.0832 22.2248 40.6414C8.5731 37.2108 11.579 27.2569 14.7884 22.7088C13.5986 20.4633 14.4492 17.5629 15.0232 16.3934C18.0917 16.3934 20.581 18.2647 21.442 19.2003C25.7004 17.828 30.3658 18.6285 32.1662 19.2003C33.9196 17.1419 37.1238 16.4714 38.5067 16.3934C40.0096 18.6389 39.446 21.5393 38.9764 22.7088C46.4911 34.1857 36.9933 39.4459 31.3051 40.6414C31.5556 41.0156 31.7748 41.7329 31.7748 42.0448V49.9196C31.9313 51.0891 32.8707 51.323 33.2621 51.4789C25.7473 52.4925 18.8589 51.4009 20.1896 51.4789C21.2542 51.5413 21.9117 50.4653 21.9117 49.9196Z" fill="white"/>
</svg>
